<?xml version="1.0" encoding="UTF-8"?>
<svg id="Layer_5" data-name="Layer 5" xmlns="http://www.w3.org/2000/svg" viewBox="0 0 234.96 336.66">
  <defs>
    <style>
      .cls-1 {
        fill: #8FA4A8;
      }
    </style>
  </defs>
  <path class="cls-1" d="M168.33,113.25l-11.74-69.85c-2.33-2.33-3.67-3.67-6-6h-66.22c-2.34,2.34-3.66,3.66-6,6l-11.74,69.85c-.22.11-.44.22-.66.33,13.4,7.9,25.81,8.98,25.44,10.34-.4,1.46-14.79.63-29.74-5.33-.95-.38-1.91-.79-2.86-1.21C23.66,137.7,0,175.67,0,219.18c0,64.88,52.6,117.48,117.48,117.48s117.48-52.6,117.48-117.48c0-46.67-27.21-86.97-66.63-105.93ZM156.91,148.6c.16-.29.44-.54.83-.76.39-.21.94-.39,1.64-.54s1.59-.25,2.66-.32c1.07-.06,2.38-.1,3.91-.1,1.66,0,3.08.04,4.25.12,1.17.08,2.11.21,2.81.39.7.18,1.21.4,1.54.66.33.26.49.57.49.93v38.04h5.62c.52,0,.97.4,1.34,1.2.37.8.56,2.12.56,3.98,0,1.66-.17,2.92-.51,3.78-.34.86-.81,1.29-1.39,1.29h-5.62v11.43c0,.33-.1.61-.29.85s-.54.45-1.03.61c-.49.16-1.12.29-1.9.37s-1.79.12-3.03.12c-1.17,0-2.16-.04-2.95-.12s-1.43-.2-1.9-.37c-.47-.16-.8-.37-.98-.61s-.27-.53-.27-.85v-11.43h-24.17c-.46,0-.86-.06-1.22-.17-.36-.11-.66-.37-.9-.78-.24-.41-.42-.99-.54-1.76-.11-.76-.17-1.78-.17-3.05,0-1.04.02-1.94.07-2.71.05-.76.13-1.46.24-2.08.11-.62.28-1.2.49-1.76.21-.55.48-1.14.81-1.76l19.63-34.62ZM84.52,101.66l7.81-46.45,3.86-3.86h42.59c1.5,1.5,2.36,2.36,3.86,3.86l7.81,46.45h-65.93ZM131.03,185.81c0,1.89-.18,3.21-.54,3.96-.36.75-.93,1.12-1.71,1.12h-20.31c-.81,0-1.4-.38-1.76-1.15-.36-.76-.54-2.08-.54-3.93s.18-3.11.54-3.86c.36-.75.94-1.12,1.76-1.12h20.31c.39,0,.72.08,1,.24.28.16.51.44.71.83s.33.91.42,1.56c.08.65.12,1.43.12,2.34ZM30.99,289.23c-.38.12-.72.17-1.01.15-.29-.02-.58-.14-.86-.37-.28-.23-.58-.56-.9-.99s-.7-1-1.13-1.71c-.49-.79-.86-1.43-1.13-1.93-.26-.5-.43-.92-.49-1.26-.07-.34-.04-.64.08-.88.12-.25.33-.51.62-.79l14.35-14.85-.03-.04-19.53,6.49c-.36.13-.68.19-.96.19s-.56-.1-.83-.3c-.28-.2-.58-.52-.9-.96-.32-.44-.72-1.04-1.19-1.8-.5-.8-.88-1.45-1.14-1.95-.26-.5-.43-.92-.49-1.26s-.04-.64.08-.88.33-.52.61-.81l19.64-20.63c.42-.43.77-.75,1.04-.93.27-.19.54-.25.8-.17.26.08.53.3.81.68.28.37.64.91,1.08,1.62.4.65.71,1.17.93,1.57.22.39.34.71.39.95.04.24.01.44-.09.6-.1.16-.27.34-.51.55l-17.63,17.47v.02s23.46-7.77,23.46-7.77c.3-.11.56-.17.78-.18.22-.01.44.06.67.22.22.16.47.41.73.77.27.35.59.84.98,1.46.41.66.73,1.2.94,1.61.22.41.35.75.39,1.02.04.27.01.5-.09.71-.11.2-.28.41-.52.64l-17.27,17.73.03.04,23.42-8.01c.25-.1.47-.16.67-.19.2-.03.41.02.62.16.21.14.44.38.7.71.26.34.59.83.99,1.48.38.61.65,1.09.83,1.45s.23.66.18.91c-.06.25-.24.45-.55.62-.31.16-.76.34-1.35.54l-27.18,8.33ZM71.05,301.87c-.82.26-1.69.38-2.6.35-.92-.03-1.86-.2-2.84-.51.25.46.46.94.61,1.44.15.51.24,1.05.28,1.64.03.59.01,1.22-.07,1.9-.08.67-.2,1.4-.38,2.2l-1.41,6.62c-.16.65-.28,1.11-.38,1.39-.1.28-.19.49-.29.62-.1.15-.22.25-.34.31-.12.06-.31.06-.56-.02s-.57-.23-.98-.48-.94-.6-1.61-1.07c-.56-.39-1-.72-1.31-.98s-.54-.5-.68-.7c-.14-.21-.21-.4-.21-.57,0-.17.03-.35.09-.55l1.75-7.4c.18-.85.31-1.62.4-2.31.09-.69.09-1.32,0-1.89-.09-.57-.28-1.09-.59-1.56-.3-.47-.74-.91-1.29-1.3l-1.64-1.15-6.93,9.84c-.09.13-.22.22-.38.27-.16.05-.37.03-.61-.04-.25-.07-.55-.21-.91-.4s-.8-.47-1.32-.84c-.51-.36-.91-.67-1.23-.95-.31-.28-.54-.52-.7-.73s-.23-.39-.24-.55.04-.31.13-.44l16.52-23.46c.41-.59.86-.9,1.34-.95.48-.05.94.08,1.38.39l6.69,4.71c.68.48,1.23.88,1.65,1.22s.8.65,1.13.94c.93.88,1.69,1.79,2.27,2.73.58.94.95,1.91,1.12,2.9.17.99.13,1.98-.12,2.99-.25,1.01-.74,2.02-1.46,3.05-.61.87-1.27,1.58-1.99,2.13-.72.56-1.49.97-2.31,1.22ZM100.73,299.83c-.06.31-.17.7-.33,1.17-.15.43-.29.79-.43,1.08-.14.29-.28.51-.42.67-.14.16-.28.26-.41.31-.14.05-.27.05-.41,0l-10.7-3.58-2.45,7.31,9.05,3.03c.14.05.25.13.34.26.09.12.14.29.16.49.02.2,0,.46-.07.78-.06.31-.17.69-.31,1.12-.15.45-.29.81-.43,1.09-.14.28-.27.5-.41.65-.14.15-.28.25-.42.29-.14.04-.28.03-.42-.01l-9.05-3.03-2.83,8.45,10.79,3.61c.14.05.25.13.34.25.09.12.14.29.15.5.02.21,0,.47-.07.79-.06.31-.17.69-.32,1.14-.15.45-.29.82-.43,1.1-.14.29-.28.51-.42.67-.14.16-.28.26-.42.31-.14.05-.29.05-.42,0l-15.05-5.04c-.51-.17-.89-.46-1.13-.88-.25-.42-.26-.96-.03-1.64l8.75-26.11c.23-.68.57-1.11,1.01-1.29.45-.18.93-.19,1.44-.02l14.96,5.01c.14.05.25.13.33.24.08.11.13.28.14.5.01.22-.01.48-.07.8ZM100.88,202.87c-.05.57-.12,1.06-.22,1.46-.1.41-.23.76-.39,1.05s-.42.63-.78,1c-.36.38-1.05.85-2.08,1.44s-2.28,1.15-3.76,1.68-3.17.98-5.08,1.34-3.96.54-6.18.54c-4.33,0-8.24-.67-11.72-2-3.48-1.33-6.45-3.33-8.89-5.98-2.44-2.65-4.31-5.96-5.62-9.94-1.3-3.97-1.95-8.59-1.95-13.87s.72-10.14,2.15-14.31c1.43-4.17,3.43-7.67,6.01-10.5s5.66-4.98,9.25-6.45,7.56-2.2,11.89-2.2c1.76,0,3.45.15,5.08.44s3.13.68,4.52,1.15c1.38.47,2.63,1.02,3.74,1.64,1.11.62,1.88,1.15,2.32,1.59s.74.81.9,1.1.29.67.39,1.12c.1.46.17.99.22,1.61.05.62.07,1.38.07,2.29,0,.98-.03,1.81-.1,2.49s-.18,1.24-.34,1.66c-.16.42-.36.73-.59.93s-.49.29-.78.29c-.49,0-1.11-.28-1.86-.85-.75-.57-1.72-1.2-2.91-1.9-1.19-.7-2.6-1.33-4.25-1.9-1.64-.57-3.61-.85-5.88-.85-2.51,0-4.74.51-6.71,1.54s-3.65,2.49-5.03,4.39-2.43,4.21-3.15,6.91c-.72,2.7-1.07,5.75-1.07,9.13,0,3.71.38,6.93,1.15,9.64.76,2.72,1.86,4.96,3.27,6.71s3.12,3.07,5.13,3.93c2,.86,4.26,1.29,6.76,1.29,2.28,0,4.25-.27,5.91-.81s3.08-1.13,4.27-1.78c1.19-.65,2.17-1.24,2.93-1.76.76-.52,1.36-.78,1.78-.78.33,0,.59.07.78.2.2.13.36.39.49.78s.23.94.29,1.64c.07.7.1,1.64.1,2.81,0,.81-.02,1.51-.07,2.08ZM125.64,304.99c-.02.49-.06.9-.1,1.24s-.12.61-.21.82c-.09.21-.2.36-.31.45-.12.09-.25.14-.4.13-.24,0-.55-.17-.91-.47-.36-.3-.83-.64-1.41-1.01-.58-.38-1.27-.72-2.08-1.04-.81-.32-1.78-.5-2.92-.55-1.25-.05-2.38.15-3.39.62-1.01.47-1.88,1.17-2.61,2.09-.73.92-1.31,2.05-1.72,3.38-.42,1.33-.66,2.85-.73,4.54-.08,1.85.04,3.47.37,4.84s.82,2.51,1.49,3.42c.67.91,1.5,1.6,2.48,2.07.98.47,2.1.74,3.35.79,1.14.05,2.13-.04,2.97-.28.84-.23,1.56-.5,2.17-.8s1.11-.57,1.5-.82c.39-.24.7-.36.91-.35.16,0,.29.05.39.11.09.07.17.2.23.4.06.2.09.47.11.82.02.35.01.82-.01,1.4-.02.41-.04.75-.08,1.04-.04.28-.08.53-.14.73s-.13.37-.22.52c-.09.14-.22.3-.41.48-.19.18-.54.4-1.07.67s-1.16.52-1.91.76c-.75.24-1.61.42-2.57.56-.96.14-1.99.18-3.1.14-2.16-.09-4.1-.51-5.81-1.25-1.71-.74-3.15-1.8-4.31-3.18s-2.03-3.07-2.59-5.08c-.57-2.01-.79-4.33-.68-6.97.12-2.68.58-5.05,1.38-7.1.8-2.05,1.88-3.76,3.23-5.12,1.35-1.36,2.93-2.37,4.76-3.02,1.83-.66,3.82-.94,5.99-.84.88.04,1.72.15,2.53.33.81.18,1.55.41,2.23.67.68.26,1.29.56,1.83.9.54.33.92.61,1.12.84.21.23.35.42.43.57.07.15.13.34.17.57s.06.5.08.81c.01.31,0,.69-.01,1.15ZM157.56,324.06c-.05.16-.19.31-.41.46-.22.15-.54.3-.95.46-.41.16-.94.32-1.59.48-1.02.26-1.77.41-2.24.45-.47.04-.82,0-1.06-.11-.24-.11-.44-.26-.61-.45l-12.97-12.15,3.73,14.52c.04.17.04.33-.03.49-.06.15-.2.3-.42.45s-.51.29-.89.44-.88.3-1.5.46c-.6.15-1.11.26-1.52.31-.41.06-.75.07-1.01.04-.26-.03-.46-.09-.59-.19-.14-.1-.22-.24-.27-.41l-7.4-28.83c-.04-.17-.03-.34.04-.49s.21-.3.43-.44c.22-.14.52-.28.91-.43s.88-.3,1.48-.46c.61-.16,1.12-.26,1.53-.32.41-.05.74-.07,1-.05.26.02.45.08.58.18s.21.24.26.41l3.34,13.03,5.62-15.31c.06-.23.15-.44.27-.61.12-.17.3-.33.53-.48.23-.14.54-.28.93-.41s.89-.28,1.5-.44c.63-.16,1.16-.27,1.58-.33.42-.06.77-.07,1.03-.05.27.02.46.09.59.19.13.1.21.23.25.39.07.27.07.56,0,.88-.07.32-.22.84-.46,1.55l-5.57,13.15,12.7,11.48c.51.56.83.93.96,1.13.12.19.2.36.24.48.04.17.04.34-.01.49ZM171.29,316.96c-.03.17-.14.34-.32.52-.18.18-.44.39-.78.62-.34.23-.79.49-1.35.78-.55.28-1.02.5-1.41.65-.39.15-.71.24-.97.28-.25.04-.46.03-.61-.04-.15-.07-.27-.17-.34-.32l-13.69-26.51c-.08-.14-.09-.3-.06-.46.03-.16.14-.34.33-.53.19-.19.45-.4.79-.63.34-.23.78-.49,1.33-.77.56-.29,1.04-.51,1.42-.65s.7-.24.96-.28c.25-.04.46-.03.61.04.15.07.27.17.34.32l13.69,26.51c.07.14.09.3.06.46ZM200.98,294.03c-.03.29-.13.57-.3.84-.17.27-.36.5-.59.71l-2.04,1.83c-.42.38-.83.67-1.21.86-.38.19-.81.29-1.27.3-.46,0-.99-.07-1.57-.23-.58-.17-1.3-.41-2.15-.75l-15.71-5.75c-.93-.35-1.9-.75-2.93-1.19-1.03-.44-2.01-.9-2.92-1.36l-.04.03c.83.83,1.65,1.67,2.45,2.51s1.61,1.73,2.44,2.65l11.03,12.31c.11.12.17.26.19.42.02.16-.02.34-.13.55-.1.21-.28.46-.53.75s-.59.62-1.02,1.02c-.42.38-.79.68-1.1.89-.31.21-.58.36-.79.43-.22.07-.4.09-.55.05-.15-.04-.28-.12-.38-.25l-18.95-21.15c-.51-.57-.73-1.15-.65-1.73.08-.58.36-1.09.84-1.53l2.56-2.3c.46-.41.88-.72,1.27-.92.39-.2.78-.33,1.2-.37.41-.04.87,0,1.38.13.51.12,1.09.32,1.74.59l12.29,4.49c.73.28,1.46.56,2.17.83.71.27,1.41.55,2.11.83.69.29,1.37.57,2.04.85.66.28,1.32.56,1.98.85l.02-.02c-.8-.82-1.62-1.68-2.46-2.58-.84-.9-1.64-1.78-2.39-2.61l-9.89-11.04c-.11-.12-.17-.26-.18-.43-.01-.16.03-.36.14-.58s.28-.48.53-.76.6-.62,1.03-1.01c.41-.37.77-.66,1.08-.88.31-.22.57-.36.78-.42.22-.06.4-.07.55-.03.15.04.28.12.38.25l18.95,21.15c.25.28.42.57.52.88.1.31.13.6.1.9ZM220.55,262.67c-.16.8-.37,1.61-.61,2.42s-.53,1.62-.86,2.42-.69,1.57-1.09,2.34c-1.18,2.23-2.55,4.06-4.12,5.49-1.57,1.43-3.29,2.43-5.15,3.01-1.86.58-3.84.74-5.93.46-2.09-.27-4.24-1-6.46-2.17-2.29-1.21-4.16-2.64-5.62-4.29s-2.49-3.45-3.1-5.38-.77-3.98-.51-6.13c.27-2.15.98-4.33,2.14-6.53.64-1.21,1.3-2.27,1.99-3.17s1.35-1.67,1.98-2.28c.63-.62,1.21-1.1,1.74-1.44.53-.35.95-.56,1.25-.65.3-.09.66-.08,1.08.03.41.11.98.35,1.7.73.42.22.77.43,1.05.62.28.2.5.37.64.53.15.16.23.31.25.44.02.13,0,.26-.07.39-.1.19-.39.42-.87.7-.48.28-1.05.69-1.72,1.22-.67.53-1.38,1.21-2.15,2.03-.76.82-1.48,1.87-2.15,3.13-.71,1.35-1.12,2.7-1.23,4.04-.11,1.34.06,2.63.51,3.85.45,1.23,1.16,2.37,2.14,3.42.98,1.05,2.2,1.96,3.65,2.73,1.6.84,3.12,1.37,4.56,1.59,1.44.22,2.77.16,4-.17,1.22-.33,2.33-.92,3.31-1.77.98-.85,1.82-1.93,2.5-3.22.33-.63.59-1.3.77-1.99.18-.7.27-1.38.26-2.07l-6.48-3.42-2.79,5.29c-.14.26-.4.38-.8.35-.4-.03-.99-.25-1.77-.65-.4-.21-.73-.41-.99-.59-.25-.18-.45-.35-.57-.51-.13-.16-.21-.31-.23-.45-.03-.14,0-.28.06-.41l4.98-9.44c.12-.23.27-.41.44-.55.17-.14.38-.23.61-.29s.48-.06.74-.01c.26.05.54.14.82.3l11.12,5.86c.43.23.77.5,1.01.82.24.32.34.77.28,1.33-.06.57-.17,1.25-.33,2.05Z"/>
  <polygon class="cls-1" points="162.67 157.98 162.57 157.98 145.92 187.03 162.67 187.03 162.67 157.98"/>
  <path class="cls-1" d="M68.67,289.29c-.31-.28-.77-.63-1.37-1.05l-2.36-1.66-5.16,7.33,2.67,1.88c.75.52,1.46.89,2.15,1.11s1.33.29,1.93.23c.6-.06,1.16-.26,1.66-.58.5-.32.95-.76,1.35-1.32.6-.85.91-1.71.94-2.56s-.32-1.71-1.02-2.57c-.22-.25-.48-.52-.8-.8Z"/>
</svg>